<svg xmlns="http://www.w3.org/2000/svg" viewBox="0 0 61.71 61.71"><defs><style>.cls-1{fill:#231f20;}.cls-2{fill:none;stroke:#00b1d8;stroke-miterlimit:10;stroke-width:0.61px;}.cls-2,.cls-3{fill-rule:evenodd;}.cls-3{fill:#fff;}</style></defs><g id="Layer_2" data-name="Layer 2"><g id="Layer_2-2" data-name="Layer 2"><path class="cls-1" d="M17.61,0H44.1A17.61,17.61,0,0,1,61.71,17.61v44.1a0,0,0,0,1,0,0H16.61A16.61,16.61,0,0,1,0,45.1V17.61A17.61,17.61,0,0,1,17.61,0Z"/><path class="cls-2" d="M31.54,35a2.3,2.3,0,0,0-1,1l-.4.67,0,.09L22.55,49.83a3.07,3.07,0,0,1-2.65,1.53H16a3,3,0,0,1-2.7-1.62h3A3.07,3.07,0,0,0,19,48.21l7.57-13.12,0-.08.4-.67a2.39,2.39,0,0,1,4.15,0Z"/><path class="cls-2" d="M49.27,51.36H45.38a3.1,3.1,0,0,1-2.66-1.53l0-.09h3a3.07,3.07,0,0,0,2.66-4.61l-5.8-10L42.51,35,31.32,15.63l1.32-2.28L46.08,36.63l.05.09,5.8,10A3.07,3.07,0,0,1,49.27,51.36Z"/><path class="cls-3" d="M45.7,49.74H41.81a3.11,3.11,0,0,1-2.66-1.53L31.59,35.09,31.54,35l-.4-.67a2.39,2.39,0,0,0-4.15,0l-.4.67,0,.08L19,48.21a3.07,3.07,0,0,1-2.66,1.53H12.44a3.07,3.07,0,0,1-2.66-4.61l5.8-10,0-.08L29.06,11.72l2.26,3.91L42.51,35l.05.08,5.8,10A3.07,3.07,0,0,1,45.7,49.74Z"/></g></g></svg>