<svg width="25" height="25" viewBox="0 0 25 25" fill="none" xmlns="http://www.w3.org/2000/svg">
<g id="24 / symbols / instagram">
<path fill="#005B99" id="icon" fill-rule="evenodd" clip-rule="evenodd" d="M16.6667 2.08325H8.33337C4.88159 2.08325 2.08337 4.88147 2.08337 8.33325V16.6666C2.08337 20.1184 4.88159 22.9166 8.33337 22.9166H16.6667C20.1185 22.9166 22.9167 20.1184 22.9167 16.6666V8.33325C22.9167 4.88147 20.1185 2.08325 16.6667 2.08325ZM4.16672 8.33324C4.16672 6.03205 6.0322 4.16657 8.33338 4.16657H16.6667C18.9679 4.16657 20.8334 6.03205 20.8334 8.33324V16.6666C20.8334 18.9678 18.9679 20.8332 16.6667 20.8332H8.33338C6.0322 20.8332 4.16672 18.9678 4.16672 16.6666V8.33324ZM12.5 17.7082C9.62356 17.7082 7.29171 15.3764 7.29171 12.4999C7.29171 9.62342 9.62356 7.29157 12.5 7.29157C15.3765 7.29157 17.7084 9.62342 17.7084 12.4999C17.7084 15.3764 15.3765 17.7082 12.5 17.7082ZM12.5 15.6249C14.2259 15.6249 15.625 14.2258 15.625 12.4999C15.625 10.774 14.2259 9.37493 12.5 9.37493C10.7741 9.37493 9.37503 10.774 9.37503 12.4999C9.37503 14.2258 10.7741 15.6249 12.5 15.6249ZM18.75 7.2916C18.75 7.8669 18.2837 8.33327 17.7084 8.33327C17.1331 8.33327 16.6667 7.8669 16.6667 7.2916C16.6667 6.7163 17.1331 6.24993 17.7084 6.24993C18.2837 6.24993 18.75 6.7163 18.75 7.2916Z"/>
</g>
</svg>