<svg width="25" height="25" viewBox="0 0 25 25" fill="none" xmlns="http://www.w3.org/2000/svg">
<path fill="#005B99" fill-rule="evenodd" clip-rule="evenodd" d="M4.16683 2.0835H20.8335C21.9841 2.0835 22.9168 3.01624 22.9168 4.16683V20.8335C22.9168 21.9841 21.9841 22.9168 20.8335 22.9168H4.16683C3.01624 22.9168 2.0835 21.9841 2.0835 20.8335V4.16683C2.0835 3.01624 3.01624 2.0835 4.16683 2.0835ZM4.16691 4.16691V20.8336H20.8336V4.16691H4.16691ZM13.5419 9.37508C13.0026 9.37508 12.4328 9.53993 11.9296 9.84607L11.4586 9.37508H10.4169V16.6667H12.5002V12.5001C12.5002 11.9003 13.1189 11.4584 13.5419 11.4584H14.5836C15.0065 11.4584 15.6252 11.9003 15.6252 12.5001V16.6667H17.7086V12.5001C17.7086 10.5701 16.0356 9.37508 14.5836 9.37508H13.5419ZM8.33358 8.33342C8.90887 8.33342 9.37524 7.86704 9.37524 7.29175C9.37524 6.71645 8.90887 6.25008 8.33358 6.25008C7.75828 6.25008 7.29191 6.71645 7.29191 7.29175C7.29191 7.86704 7.75828 8.33342 8.33358 8.33342ZM7.29191 9.37508V16.6667H9.37524V9.37508H7.29191Z"/>
</svg>
